<?xml version="1.0" encoding="utf-8"?>
<!-- Generator: Adobe Illustrator 24.3.0, SVG Export Plug-In . SVG Version: 6.00 Build 0)  -->
<svg version="1.1" id="icon" xmlns="http://www.w3.org/2000/svg" xmlns:xlink="http://www.w3.org/1999/xlink" x="0px" y="0px"
	 viewBox="0 0 38.5 18.4" style="enable-background:new 0 0 38.5 18.4;" xml:space="preserve">
<style type="text/css">
	.st0{fill:#7F52EF;}
	.st1{fill:#621FCC;}
	.st2{fill:#EEEFEE;}
</style>
<path class="st0" d="M8.1,6.1h22.2c0.3,0,0.5,0.2,0.5,0.4v1.7c0,0.2-0.3,0.4-0.5,0.4H8.1c-0.3,0-0.5-0.2-0.5-0.4V6.5
	C7.5,6.3,7.7,6.1,8.1,6.1z"/>
<path class="st0" d="M8.9,8.4h20.5l0,0v8.2c0,0.6-0.7,1.1-1.4,1.1H10.3c-0.8,0-1.4-0.5-1.4-1.1L8.9,8.4L8.9,8.4L8.9,8.4z"/>
<g>
	<path class="st1" d="M8.9,8.6h20.5v0.7H8.9V8.6z"/>
	<path class="st1" d="M25.9,10.5L25.9,10.5c0.4,0,0.7,0.3,0.7,0.6V16c0,0.3-0.3,0.6-0.7,0.6l0,0c-0.4,0-0.7-0.3-0.7-0.6v-4.8
		C25.1,10.8,25.5,10.5,25.9,10.5z"/>
	<path class="st1" d="M21.4,10.5L21.4,10.5c0.4,0,0.7,0.3,0.7,0.6V16c0,0.3-0.3,0.6-0.7,0.6l0,0c-0.4,0-0.7-0.3-0.7-0.6v-4.8
		C20.7,10.8,21,10.5,21.4,10.5z"/>
	<path class="st1" d="M16.9,10.5L16.9,10.5c0.4,0,0.7,0.3,0.7,0.6V16c0,0.3-0.3,0.6-0.7,0.6l0,0c-0.4,0-0.7-0.3-0.7-0.6v-4.8
		C16.2,10.8,16.5,10.5,16.9,10.5z"/>
	<path class="st1" d="M12.4,10.5L12.4,10.5c0.4,0,0.7,0.3,0.7,0.6V16c0,0.3-0.3,0.6-0.7,0.6l0,0c-0.4,0-0.7-0.3-0.7-0.6v-4.8
		C11.7,10.8,12.1,10.5,12.4,10.5z"/>
	<path class="st1" d="M26.8,7.3c0,0.6-0.6,1-1.3,1c-0.7,0-1.3-0.5-1.3-1c0-0.6,0.6-1,1.3-1l0,0C26.2,6.3,26.8,6.8,26.8,7.3L26.8,7.3
		z"/>
</g>
<path class="st2" d="M20.8,0.4L20.8,0.4c0.4-0.2,0.9-0.1,1.2,0.3l4.3,6.2c0.2,0.3,0.1,0.7-0.3,1l0,0C25.5,8,25,7.9,24.7,7.6
	l-4.3-6.2C20.2,1,20.4,0.6,20.8,0.4z"/>
<path class="st1" d="M11.5,7.3c0,0.6,0.6,1,1.3,1c0.7,0,1.3-0.5,1.3-1c0-0.6-0.6-1-1.3-1l0,0C12.1,6.3,11.5,6.8,11.5,7.3z"/>
<path class="st2" d="M12.3,7.9L12.3,7.9c-0.4-0.2-0.6-0.6-0.3-1l4.3-6.2c0.2-0.3,0.8-0.5,1.2-0.3l0,0c0.4,0.2,0.6,0.6,0.3,1
	l-4.3,6.2C13.3,7.9,12.8,8,12.3,7.9z"/>
</svg>
